<?xml version="1.0" encoding="utf-8"?>
<!-- Generator: Adobe Illustrator 19.1.0, SVG Export Plug-In . SVG Version: 6.00 Build 0)  -->
<svg version="1.1"
	 id="svg14755" xmlns:rdf="http://www.w3.org/1999/02/22-rdf-syntax-ns#" xmlns:cc="http://creativecommons.org/ns#" xmlns:dc="http://purl.org/dc/elements/1.1/" xmlns:svg="http://www.w3.org/2000/svg"
	 xmlns="http://www.w3.org/2000/svg" xmlns:xlink="http://www.w3.org/1999/xlink" x="0px" y="0px" viewBox="-204 228.9 202.8 336.1"
	 style="enable-background:new -204 228.9 202.8 336.1;" xml:space="preserve">
<style type="text/css">
	.st0{fill:#F9DEC5;}
	.st1{fill:none;stroke:#000000;}
	.st2{fill:#FFFFFF;}
	.st3{opacity:0.5;clip-path:url(#SVGID_2_);}
	.st4{fill:#ED1C24;}
	.st5{opacity:0.5;clip-path:url(#SVGID_4_);}
	.st6{fill:#D4145A;}
	.st7{opacity:0.5;clip-path:url(#SVGID_6_);}
	.st8{fill:#FBB03B;}
	.st9{opacity:0.2;clip-path:url(#SVGID_8_);}
	.st10{opacity:0.2;clip-path:url(#SVGID_10_);}
	.st11{fill:#F15A24;}
	.st12{opacity:0.3;clip-path:url(#SVGID_12_);}
	.st13{opacity:0.3;clip-path:url(#SVGID_14_);}
	.st14{fill:#AD0000;}
	.st15{opacity:0.3;clip-path:url(#SVGID_16_);}
	.st16{fill:#5E0101;}
	.st17{opacity:0.2;clip-path:url(#SVGID_18_);}
	.st18{opacity:0.2;clip-path:url(#SVGID_20_);}
	.st19{opacity:0.2;clip-path:url(#SVGID_22_);}
	.st20{opacity:0.2;clip-path:url(#SVGID_24_);}
	.st21{opacity:0.2;clip-path:url(#SVGID_26_);}
	.st22{opacity:0.2;clip-path:url(#SVGID_28_);}
	.st23{opacity:0.2;clip-path:url(#SVGID_30_);}
	.st24{opacity:0.2;clip-path:url(#SVGID_32_);}
	.st25{opacity:0.2;clip-path:url(#SVGID_34_);}
	.st26{opacity:0.2;clip-path:url(#SVGID_36_);}
	.st27{opacity:0.2;clip-path:url(#SVGID_38_);}
	.st28{opacity:0.2;clip-path:url(#SVGID_40_);}
	.st29{opacity:0.2;clip-path:url(#SVGID_42_);}
	.st30{opacity:0.2;clip-path:url(#SVGID_44_);}
	.st31{opacity:0.2;clip-path:url(#SVGID_46_);}
	.st32{fill:none;stroke:#000000;stroke-width:2;}
	.st33{opacity:0.3;clip-path:url(#SVGID_48_);}
	.st34{fill:#FFFFFF;stroke:#000000;stroke-miterlimit:10;}
	.st35{opacity:0.3;clip-path:url(#SVGID_50_);}
	.st36{opacity:0.2;clip-path:url(#SVGID_52_);}
	.st37{opacity:0.2;clip-path:url(#SVGID_54_);}
	.st38{opacity:0.2;clip-path:url(#SVGID_56_);}
</style>
<g id="layer1" transform="translate(-634.69 -477.44)">
	<g id="g8865" transform="matrix(0 1.25 1.25 0 792.19 555.16)">
		<path id="path8867" class="st0" d="M183.1-163.2c27.5,0,49.8-15.3,49.8-34.1c0-18.9-22.3-34.1-49.8-34.1
			c-27.5,0-49.8,15.3-49.8,34.1C133.3-178.5,155.6-163.2,183.1-163.2"/>
	</g>
	<g id="g8869" transform="matrix(0 1.25 1.25 0 727.35 564.3)">
		<path id="path8871" d="M183.1-163.2c4.1,0,7.4-1.3,7.4-2.9c0-1.6-3.3-2.9-7.4-2.9s-7.4,1.3-7.4,2.9
			C175.7-164.5,179-163.2,183.1-163.2"/>
	</g>
	<g id="g8873" transform="matrix(0 1.25 1.25 0 762.63 566.3)">
		<path id="path8875" d="M183.1-163.2c4.1,0,7.4-1.3,7.4-2.9c0-1.6-3.3-2.9-7.4-2.9c-4.1,0-7.4,1.3-7.4,2.9
			C175.7-164.5,179-163.2,183.1-163.2"/>
	</g>
	<g id="g8877" transform="matrix(0 1.25 1.25 0 728.1 550.15)">
		<path id="path8879" class="st1" d="M183.1-163.2c0,0-4.8-3.4-3.4-14.8"/>
	</g>
	<g id="g8881" transform="matrix(0 1.25 1.25 0 751.52 551.46)">
		<path id="path8883" class="st1" d="M183.1-163.2c0,0-5.7,4.9-4.8,15"/>
	</g>
	<g id="g8885" transform="matrix(0 1.25 1.25 0 759.18 561.6)">
		<path id="path8887" class="st2" d="M183.1-163.2c1-0.2,1.7-1,1.5-1.6c-0.2-0.6-1.1-1-2.1-0.7c-1,0.2-1.7,1-1.5,1.6
			S182.1-163,183.1-163.2"/>
	</g>
	<g id="g8889" transform="matrix(0 1.25 1.25 0 724.54 559.33)">
		<path id="path8891" class="st2" d="M183.1-163.2c1-0.2,1.7-1,1.5-1.6c-0.2-0.6-1.1-1-2.1-0.7c-1,0.2-1.7,1-1.5,1.6
			C181.2-163.3,182.1-163,183.1-163.2"/>
	</g>
	<g id="g8893" transform="matrix(0 1.25 1.25 0 785.34 486.55)">
		<path id="path8895" d="M183.1-163.2c0,0,1.4,48.7,68,40.9s-16.2,0-27-10.8s15.3,2.1,31.5-8.4c0,0-14.8,1.7-21.9-1.6
			C233.7-143.1,205.4-174.1,183.1-163.2"/>
	</g>
	<g id="g8897" transform="matrix(0 1.25 1.25 0 95.396 -230.6)">
		<g id="g8905">
			<g>
				<defs>
					<rect id="SVGID_1_" x="769.7" y="371.8" width="31.4" height="54.9"/>
				</defs>
				<clipPath id="SVGID_2_">
					<use xlink:href="#SVGID_1_"  style="overflow:visible;"/>
				</clipPath>
				<g id="g8907" class="st3">
					<g id="g8909" transform="translate(580.31 549.92)">
						<path id="path8911" d="M183.1-163.2c0,0,6.2,35.4,44,22.2S187.4-164.3,183.1-163.2"/>
					</g>
				</g>
			</g>
		</g>
	</g>
	<g id="g8913" transform="matrix(0 1.25 1.25 0 803.59 576.17)">
		<path id="path8915" class="st0" d="M183.1-163.2c6.6-4.1,10.3-10.2,8.2-13.5c-2.1-3.3-9.1-2.6-15.7,1.5
			c-6.6,4.1-10.3,10.2-8.2,13.5C169.5-158.4,176.5-159.1,183.1-163.2"/>
	</g>
	<g id="g8917" transform="matrix(0 1.25 1.25 0 730.16 591.38)">
		<path id="path8919" class="st4" d="M183.1-163.2c0,0,6.7,7.2-1.1,19.8C174.1-130.8,200.7-154.4,183.1-163.2"/>
	</g>
	<g id="g8921" transform="matrix(0 1.25 1.25 0 95.396 -230.6)">
		<g id="g8929">
			<g>
				<defs>
					<rect id="SVGID_3_" x="826.8" y="331.4" width="13.9" height="7.7"/>
				</defs>
				<clipPath id="SVGID_4_">
					<use xlink:href="#SVGID_3_"  style="overflow:visible;"/>
				</clipPath>
				<g id="g8931" class="st5">
					<g id="g8933" transform="translate(650.67 503.99)">
						<path id="path8935" class="st6" d="M183.1-163.2c1.7,0,3.1-2.5,3.1-5.6c0-3.1-1.4-5.6-3.1-5.6c-1.7,0-3.1,2.5-3.1,5.6
							C180-165.7,181.4-163.2,183.1-163.2"/>
					</g>
				</g>
			</g>
		</g>
	</g>
	<g id="g8937" transform="matrix(0 1.25 1.25 0 95.396 -230.6)">
		<g id="g8945">
			<g>
				<defs>
					<rect id="SVGID_5_" x="826.8" y="367.4" width="13.9" height="7.7"/>
				</defs>
				<clipPath id="SVGID_6_">
					<use xlink:href="#SVGID_5_"  style="overflow:visible;"/>
				</clipPath>
				<g id="g8947" class="st7">
					<g id="g8949" transform="translate(650.67 540.05)">
						<path id="path8951" class="st6" d="M183.1-163.2c1.7,0,3.1-2.5,3.1-5.6c0-3.1-1.4-5.6-3.1-5.6c-1.7,0-3.1,2.5-3.1,5.6
							C180-165.7,181.4-163.2,183.1-163.2"/>
					</g>
				</g>
			</g>
		</g>
	</g>
	<g id="g8953" transform="matrix(0 1.25 1.25 0 784.65 668.77)">
		<path id="path8955" class="st0" d="M183.1-163.2c0,0,18.5,3.2,24.2-12.3c5.7-15.4,7.8-29.4,10.9-33.1h6.7c0,0-8.9,24.3-8.9,40
			s2.1,17.5-33.9,16.7"/>
	</g>
	<g id="g8957" transform="matrix(0 1.25 1.25 0 772.89 605.59)">
		<path id="path8959" class="st0" d="M183.1-163.2h11.5c0,0,7.7,13.3,14.6,21.6c6.9,8.3,34.4,3.1,34.4,3.1
			c-3.6-4.3,0.7-21.6,0.7-21.6h-7.5c13.1-15.7,25.8-9,25.8-9c32.6,30.6,82,19.8,82,19.8c12-25.2-2.6-69.3-2.6-69.3
			c-12.7,8.1-90.6,11.2-90.6,11.2c-16.1,0-24.7-7.2-35.9-2.7c-11.2,4.5-19.8,28.8-19.8,28.8l-4.9-1.1
			C190.9-182.3,188.5-169.5,183.1-163.2"/>
	</g>
	<g id="g8961" transform="matrix(0 1.25 1.25 0 751.68 594.35)">
		<path id="path8963" class="st2" d="M183.1-163.2c-1.9,1.6-3.5,2.6-3.5,2.6c7.9-12.6,1.1-19.8,1.1-19.8c1.2,0.6,2.2,1.2,3,1.8
			C186.3-173.2,184.6-166.9,183.1-163.2"/>
	</g>
	<g id="g8965" transform="matrix(0 1.25 1.25 0 773.55 620.35)">
		<path id="path8967" class="st8" d="M183.1-163.2c1-4.1,1.9-10.4,1-19c1.3-3.4,9.4-24.2,19.7-28.3c11.2-4.5,19.8,2.7,35.9,2.7
			c0,0,77.9-3.1,90.6-11.2c0,0,14.6,44.1,2.6,69.3c0,0-49.4,10.8-82-19.8c0,0-12.7-6.7-25.8,9h7.5c0,0-4.3,17.3-0.7,21.6
			c3.6,4.3-27.5,5.2-34.4-3.1C191.3-149.5,184.6-160.7,183.1-163.2"/>
	</g>
	<g id="g8969" transform="matrix(0 1.25 1.25 0 95.396 -230.6)">
		<g id="g8977">
			<g>
				<defs>
					<rect id="SVGID_7_" x="846.3" y="363.2" width="23.8" height="12.1"/>
				</defs>
				<clipPath id="SVGID_8_">
					<use xlink:href="#SVGID_7_"  style="overflow:visible;"/>
				</clipPath>
				<g id="g8979" class="st9">
					<g id="g8981" transform="translate(670.28 541.99)">
						<path id="path8983" d="M183.1-163.2c5.7-6.3,8.2-19.1,8.2-19.1l1.5,0.3c-0.8,7.1-3.1,14.1-5,18.8
							C187.9-163.2,183.1-163.2,183.1-163.2z"/>
					</g>
				</g>
			</g>
		</g>
	</g>
	<g id="g8985" transform="matrix(0 1.25 1.25 0 95.396 -230.6)">
		<g id="g8993">
			<g>
				<defs>
					<rect id="SVGID_9_" x="790.5" y="337.2" width="16.2" height="28.8"/>
				</defs>
				<clipPath id="SVGID_10_">
					<use xlink:href="#SVGID_9_"  style="overflow:visible;"/>
				</clipPath>
				<g id="g8995" class="st10">
					<g id="g8997" transform="translate(606.99 508.45)">
						<path id="path8999" class="st11" d="M183.1-163.2c0,0,9.4-0.8,20,12.3c10.6,13.1-11.1-8.9-17.2-10c-6.1-1.2,7.1,5.6,9.6,10.6
							C195.5-150.4,171.8-164.7,183.1-163.2"/>
					</g>
				</g>
			</g>
		</g>
	</g>
	<g id="g9001" transform="matrix(0 1.25 1.25 0 701.86 526.35)">
		<path id="path9003" d="M183.1-163.2c-0.2,0.6,20.2-8.2,27.7,1.1c0,0-24.6,0-33.4,13.8c0,0,19-3.1,27.7,19c0,0-10-11.4-19.6-12
			c-0.3,0-0.5,0-0.8,0c-9.9,0,22.6,15.9,28,37.5c0,0-15.3-16.9-25.5-17.5c0,0,22.2,18.3,28.8,29.7c0,0,2.2,5.8,23.5,0.7
			c0,0-16.5,6.9-26.1,5.1c0,0,11.1,1.8,17.4,1.8c0,0-88.8,39.3-74.7-53.7c0,0-7.8,3.6-12.3,14.1c0,0,5.4-22.4,20.4-24.9
			c0,0,3.2-21.6,26-25.1C190.5-173.7,186.9-172.2,183.1-163.2"/>
	</g>
	<g id="g9005" transform="matrix(0 1.25 1.25 0 95.396 -230.6)">
		<g id="g9013">
			<g>
				<defs>
					<rect id="SVGID_11_" x="775.3" y="309" width="33.5" height="47.5"/>
				</defs>
				<clipPath id="SVGID_12_">
					<use xlink:href="#SVGID_11_"  style="overflow:visible;"/>
				</clipPath>
				<g id="g9015" class="st12">
					<g id="g9017" transform="translate(589.9 509.38)">
						<path id="path9019" d="M183.1-163.2c0,0,4.5-28.6,38-26.7C254.6-187.9,191.4-191.5,183.1-163.2"/>
					</g>
				</g>
			</g>
		</g>
	</g>
	<g id="g9021" transform="matrix(0 1.25 1.25 0 95.396 -230.6)">
		<g id="g9029">
			<g>
				<defs>
					<rect id="SVGID_13_" x="766.9" y="340" width="61.3" height="61.3"/>
				</defs>
				<clipPath id="SVGID_14_">
					<use xlink:href="#SVGID_13_"  style="overflow:visible;"/>
				</clipPath>
				<g id="g9031" class="st13">
					<g id="g9033" transform="translate(589.9 509.38)">
						<path id="path9035" class="st14" d="M183.1-163.2c0,0,4.6,57.7,49.1,47.9S193.7-105.4,183.1-163.2"/>
					</g>
				</g>
			</g>
		</g>
	</g>
	<g id="g9037" transform="matrix(0 1.25 1.25 0 95.396 -230.6)">
		<g id="g9045">
			<g>
				<defs>
					<rect id="SVGID_15_" x="753.6" y="352.4" width="70.6" height="44.1"/>
				</defs>
				<clipPath id="SVGID_16_">
					<use xlink:href="#SVGID_15_"  style="overflow:visible;"/>
				</clipPath>
				<g id="g9047" class="st15">
					<g id="g9049" transform="translate(589.9 509.38)">
						<path id="path9051" class="st16" d="M183.1-163.2c0,0-8.5,45.9,33.5,56.4S172.1-113.1,183.1-163.2"/>
					</g>
				</g>
			</g>
		</g>
	</g>
	<g id="g9053" transform="matrix(0 1.25 1.25 0 95.396 -230.6)">
		<g id="g9061">
			<g>
				<defs>
					<rect id="SVGID_17_" x="827.6" y="350.6" width="2.9" height="4.8"/>
				</defs>
				<clipPath id="SVGID_18_">
					<use xlink:href="#SVGID_17_"  style="overflow:visible;"/>
				</clipPath>
				<g id="g9063" class="st17">
					<g id="g9065" transform="translate(644.24 516.99)">
						<path id="path9067" class="st11" d="M183.1-163.2c0.4-0.7,1-2.2,2.1-2c0.9,0.1,1.5,1.6,1.5,2.3c-0.7,0.1-1-0.5-1.7-0.6
							c-0.7-0.1-1.4,0.7-2.1,0.1"/>
					</g>
				</g>
			</g>
		</g>
	</g>
	<g id="g9069" transform="matrix(0 1.25 1.25 0 95.396 -230.6)">
		<g id="g9077">
			<g>
				<defs>
					<rect id="SVGID_19_" x="789" y="322.8" width="8" height="17.3"/>
				</defs>
				<clipPath id="SVGID_20_">
					<use xlink:href="#SVGID_19_"  style="overflow:visible;"/>
				</clipPath>
				<g id="g9079" class="st18">
					<g id="g9081" transform="translate(611.29 491.84)">
						<path id="path9083" class="st11" d="M183.1-163.2c-2.7,0.3-6.8,3.7-8.4,6c2-0.7,4.2-1.9,6.4-2.7c2.4-0.9,5-2.9,7.5-3
							c-1.6-1.4-5.3-0.3-7.1,0.2"/>
					</g>
				</g>
			</g>
		</g>
	</g>
	<g id="g9085" transform="matrix(0 1.25 1.25 0 95.396 -230.6)">
		<g id="g9093">
			<g>
				<defs>
					<rect id="SVGID_21_" x="817.6" y="332" width="2.8" height="12.3"/>
				</defs>
				<clipPath id="SVGID_22_">
					<use xlink:href="#SVGID_21_"  style="overflow:visible;"/>
				</clipPath>
				<g id="g9095" class="st19">
					<g id="g9097" transform="translate(635.85 502.46)">
						<path id="path9099" class="st2" d="M183.1-163.2c2.7,0,4.9-0.5,4.9-1.1c0-0.6-2.2-1.1-4.9-1.1c-2.7,0-4.9,0.5-4.9,1.1
							C178.2-163.7,180.4-163.2,183.1-163.2"/>
					</g>
				</g>
			</g>
		</g>
	</g>
	<g id="g9101" transform="matrix(0 1.25 1.25 0 95.396 -230.6)">
		<g id="g9109">
			<g>
				<defs>
					<rect id="SVGID_23_" x="818.5" y="360.4" width="2.8" height="12.3"/>
				</defs>
				<clipPath id="SVGID_24_">
					<use xlink:href="#SVGID_23_"  style="overflow:visible;"/>
				</clipPath>
				<g id="g9111" class="st20">
					<g id="g9113" transform="translate(636.78 530.88)">
						<path id="path9115" class="st2" d="M183.1-163.2c2.7,0,4.9-0.5,4.9-1.1c0-0.6-2.2-1.1-4.9-1.1c-2.7,0-4.9,0.5-4.9,1.1
							C178.2-163.7,180.4-163.2,183.1-163.2"/>
					</g>
				</g>
			</g>
		</g>
	</g>
	<g id="g9117" transform="matrix(0 1.25 1.25 0 95.396 -230.6)">
		<g id="g9125">
			<g>
				<defs>
					<rect id="SVGID_25_" x="848.5" y="351.2" width="6.2" height="3.5"/>
				</defs>
				<clipPath id="SVGID_26_">
					<use xlink:href="#SVGID_25_"  style="overflow:visible;"/>
				</clipPath>
				<g id="g9127" class="st21">
					<g id="g9129" transform="translate(667.5 513.66)">
						<path id="path9131" class="st11" d="M183.1-163.2c0.1,0.1,0.2,0.2,0.4,0.3c0.3,0.4,0.3,1.4,0.3,1.9c0,0.9-0.6,2-1.1,2.7
							c0.8,0.3,2.3-1.1,2.6-1.8c0.3-0.6,0.3-1.7-0.1-2.2c-0.5-0.6-1.5-0.6-2.2-0.8"/>
					</g>
				</g>
			</g>
		</g>
	</g>
	<g id="g9133" transform="matrix(0 1.25 1.25 0 95.396 -230.6)">
		<g id="g9141">
			<g>
				<defs>
					<rect id="SVGID_27_" x="887.3" y="347.8" width="36.1" height="6"/>
				</defs>
				<clipPath id="SVGID_28_">
					<use xlink:href="#SVGID_27_"  style="overflow:visible;"/>
				</clipPath>
				<g id="g9143" class="st22">
					<g id="g9145" transform="translate(720.13 499.51)">
						<path id="path9147" class="st11" d="M183.1-163.2c0,0,5.8,5.4-0.3,28.9C176.8-110.8,193.4-160.5,183.1-163.2"/>
					</g>
				</g>
			</g>
		</g>
	</g>
	<g id="g9149" transform="matrix(0 1.25 1.25 0 95.396 -230.6)">
		<g id="g9157">
			<g>
				<defs>
					<rect id="SVGID_29_" x="930.5" y="335.8" width="5.7" height="5.4"/>
				</defs>
				<clipPath id="SVGID_30_">
					<use xlink:href="#SVGID_29_"  style="overflow:visible;"/>
				</clipPath>
				<g id="g9159" class="st23">
					<g id="g9161" transform="translate(750.57 499.66)">
						<path id="path9163" class="st11" d="M183.1-163.2c0.1,0,0.2,0,0.3-0.1c-0.9,0.7-3.5,1.6-2.6,3c0.6,0.9,3.1,1.5,4.1,1.4
							c-0.7-0.7-1.6-1.5-1.7-2.6c0-0.6,1-2.3-0.2-1.8"/>
					</g>
				</g>
			</g>
		</g>
	</g>
	<g id="g9165" transform="matrix(0 1.25 1.25 0 95.396 -230.6)">
		<g id="g9173">
			<g>
				<defs>
					<rect id="SVGID_31_" x="929.4" y="342.7" width="6.4" height="5.2"/>
				</defs>
				<clipPath id="SVGID_32_">
					<use xlink:href="#SVGID_31_"  style="overflow:visible;"/>
				</clipPath>
				<g id="g9175" class="st24">
					<g id="g9177" transform="translate(751.57 505.92)">
						<path id="path9179" class="st11" d="M183.1-163.2c-0.8-0.1-3.1,0.9-3.7,1.5c-0.6,0.7-0.5,1.7,0.1,2.4c0.3,0.4,1.3,1.5,1.8,1.1
							c0.5-0.4-0.2-2.4-0.1-3.1c0.7-0.4,2-0.4,2-1.7c-0.1-0.1-0.5-0.2-0.6-0.3c-0.1,0.1-0.2,0.2-0.2,0.4"/>
					</g>
				</g>
			</g>
		</g>
	</g>
	<g id="g9181" transform="matrix(0 1.25 1.25 0 95.396 -230.6)">
		<g id="g9189">
			<g>
				<defs>
					<rect id="SVGID_33_" x="929.4" y="348.8" width="6.1" height="6.2"/>
				</defs>
				<clipPath id="SVGID_34_">
					<use xlink:href="#SVGID_33_"  style="overflow:visible;"/>
				</clipPath>
				<g id="g9191" class="st25">
					<g id="g9193" transform="translate(750.16 512.79)">
						<path id="path9195" class="st11" d="M183.1-163.2c-0.7-0.2-3,0.8-3.3,1.9c0.9,0.9,1.8,2,2.9,2.5c0.6,0.3,2.1,0.6,2-0.5
							c-0.1-1-1.8-1.2-1.8-2.2c0-0.8,1.3-1,1.1-1.9c-0.6,0-1.2-0.3-1.6,0.5"/>
					</g>
				</g>
			</g>
		</g>
	</g>
	<g id="g9197" transform="matrix(0 1.25 1.25 0 95.396 -230.6)">
		<g id="g9205">
			<g>
				<defs>
					<rect id="SVGID_35_" x="927.8" y="355.2" width="7.3" height="6.6"/>
				</defs>
				<clipPath id="SVGID_36_">
					<use xlink:href="#SVGID_35_"  style="overflow:visible;"/>
				</clipPath>
				<g id="g9207" class="st26">
					<g id="g9209" transform="translate(750.97 519.17)">
						<path id="path9211" class="st11" d="M183.1-163.2c-1.5,0.1-4.8-0.3-5.3,1.9c0.8,0.7,1.2,1.8,2.1,2.5c0.8,0.6,1.6,1.2,2.5,1.2
							c-0.2-1.1-0.9-1.9-1.1-3c0.5-0.3,0.9-1,1.1-1.6c0.1-0.6,0.1-1.8-0.6-1.1"/>
					</g>
				</g>
			</g>
		</g>
	</g>
	<g id="g9213" transform="matrix(0 1.25 1.25 0 95.396 -230.6)">
		<g id="g9221">
			<g>
				<defs>
					<rect id="SVGID_37_" x="927.6" y="364.7" width="6.4" height="5.6"/>
				</defs>
				<clipPath id="SVGID_38_">
					<use xlink:href="#SVGID_37_"  style="overflow:visible;"/>
				</clipPath>
				<g id="g9223" class="st27">
					<g id="g9225" transform="translate(749.56 528.56)">
						<path id="path9227" class="st11" d="M183.1-163.2c0.1-0.2,0.1-0.3,0.1-0.5c-0.8,0-2.9,0.7-3.5,1.3c-0.4,0.4-0.4,1-0.7,1.6
							c0.7,0.7,1.6,1,2.4,1.5c0.6,0.3,1.4,1.1,2,0.7c-0.4-0.8-1.6-1.6-1.6-2.5c0-0.9,1.5-1.7,1.2-2.4"/>
					</g>
				</g>
			</g>
		</g>
	</g>
	<g id="g9229" transform="matrix(0 1.25 1.25 0 95.396 -230.6)">
		<g id="g9237">
			<g>
				<defs>
					<rect id="SVGID_39_" x="970.3" y="290.1" width="10.7" height="95.4"/>
				</defs>
				<clipPath id="SVGID_40_">
					<use xlink:href="#SVGID_39_"  style="overflow:visible;"/>
				</clipPath>
				<g id="g9239" class="st28">
					<g id="g9241" transform="translate(754.42 503.18)">
						<path id="path9243" class="st11" d="M183.1-163.2c0,0,50.1,4.8,76.3-6.5S215.2-156,183.1-163.2"/>
					</g>
				</g>
			</g>
		</g>
	</g>
	<g id="g9245" transform="matrix(0 1.25 1.25 0 95.396 -230.6)">
		<g id="g9253">
			<g>
				<defs>
					<rect id="SVGID_41_" x="970.5" y="304.8" width="13.8" height="99.7"/>
				</defs>
				<clipPath id="SVGID_42_">
					<use xlink:href="#SVGID_41_"  style="overflow:visible;"/>
				</clipPath>
				<g id="g9255" class="st29">
					<g id="g9257" transform="translate(754.42 512.29)">
						<path id="path9259" class="st11" d="M183.1-163.2c0,0,52.8,17.8,79.7,2.3S235.2-139.7,183.1-163.2"/>
					</g>
				</g>
			</g>
		</g>
	</g>
	<g id="g9261" transform="matrix(0 1.25 1.25 0 95.396 -230.6)">
		<g id="g9269">
			<g>
				<defs>
					<rect id="SVGID_43_" x="967.2" y="320.6" width="21.2" height="99"/>
				</defs>
				<clipPath id="SVGID_44_">
					<use xlink:href="#SVGID_43_"  style="overflow:visible;"/>
				</clipPath>
				<g id="g9271" class="st30">
					<g id="g9273" transform="translate(755.05 524.76)">
						<path id="path9275" class="st11" d="M183.1-163.2c0,0,51.1,23.9,79.2,11.6C290.4-163.9,233-133.7,183.1-163.2"/>
					</g>
				</g>
			</g>
		</g>
	</g>
	<g id="g9277" transform="matrix(0 1.25 1.25 0 95.396 -230.6)">
		<g id="g9285">
			<g>
				<defs>
					<rect id="SVGID_45_" x="909.6" y="321.9" width="3.7" height="23.1"/>
				</defs>
				<clipPath id="SVGID_46_">
					<use xlink:href="#SVGID_45_"  style="overflow:visible;"/>
				</clipPath>
				<g id="g9287" class="st31">
					<g id="g9289" transform="translate(719.04 495.22)">
						<path id="path9291" class="st11" d="M183.1-163.2c0,0,11.8,4,18.5,2.7C208.3-161.8,185.5-162.7,183.1-163.2"/>
					</g>
				</g>
			</g>
		</g>
	</g>
	<g id="g9293" transform="matrix(0 1.25 1.25 0 749.78 621.6)">
		<path id="path9295" class="st11" d="M183.1-163.2c0,0,4.9-8.7,13.1-13.7c8.2-5-2,17.9-14.1,32.8
			C170-129.3,190.3-162.6,183.1-163.2"/>
	</g>
	<g id="g9297" transform="matrix(0 1.25 1.25 0 734.65 563.08)">
		<path id="path9299" class="st32" d="M183.1-163.2c6.3,0,11.4-6.2,11.4-13.8c0-7.6-5.1-13.8-11.4-13.8c-6.3,0-11.4,6.2-11.4,13.8
			C171.7-169.4,176.8-163.2,183.1-163.2z"/>
	</g>
	<g id="g9301" transform="matrix(0 1.25 1.25 0 95.396 -230.6)">
		<g id="g9309">
			<g>
				<defs>
					<rect id="SVGID_47_" x="800.8" y="320.2" width="34.5" height="28.5"/>
				</defs>
				<clipPath id="SVGID_48_">
					<use xlink:href="#SVGID_47_"  style="overflow:visible;"/>
				</clipPath>
				<g id="g9311" class="st33">
					<g id="g9313" transform="translate(634.95 511.4)">
						<path id="path9315" class="st34" d="M183.1-163.2c6.3,0,11.4-6.2,11.4-13.8c0-7.6-5.1-13.8-11.4-13.8
							c-6.3,0-11.4,6.2-11.4,13.8C171.7-169.4,176.8-163.2,183.1-163.2"/>
					</g>
				</g>
			</g>
		</g>
	</g>
	<g id="g9317" transform="matrix(0 1.25 1.25 0 95.396 -230.6)">
		<g id="g9325">
			<g>
				<defs>
					<rect id="SVGID_49_" x="802.6" y="357.9" width="34.5" height="28.5"/>
				</defs>
				<clipPath id="SVGID_50_">
					<use xlink:href="#SVGID_49_"  style="overflow:visible;"/>
				</clipPath>
				<g id="g9327" class="st35">
					<g id="g9329" transform="translate(636.75 549.18)">
						<path id="path9331" class="st2" d="M183.1-163.2c6.3,0,11.4-6.2,11.4-13.8c0-7.6-5.1-13.8-11.4-13.8
							c-6.3,0-11.4,6.2-11.4,13.8C171.7-169.4,176.8-163.2,183.1-163.2"/>
					</g>
				</g>
			</g>
		</g>
	</g>
	<g id="g9333" transform="matrix(0 1.25 1.25 0 781.98 565.43)">
		<path id="path9335" class="st32" d="M183.1-163.2c6.3,0,11.4-6.2,11.4-13.8s-5.1-13.8-11.4-13.8c-6.3,0-11.4,6.2-11.4,13.8
			S176.8-163.2,183.1-163.2z"/>
	</g>
	<g id="g9337" transform="matrix(0 1.25 1.25 0 734.65 563.08)">
		<path id="path9339" class="st32" d="M183.1-163.2c0,0-4.7,4.8,0.8,10.3"/>
	</g>
	<g id="g9341" transform="matrix(0 1.25 1.25 0 95.396 -230.6)">
		<g id="g9349">
			<g>
				<defs>
					<rect id="SVGID_51_" x="905.3" y="390.3" width="15.2" height="5.8"/>
				</defs>
				<clipPath id="SVGID_52_">
					<use xlink:href="#SVGID_51_"  style="overflow:visible;"/>
				</clipPath>
				<g id="g9351" class="st36">
					<g id="g9353" transform="translate(728.16 562.33)">
						<path id="path9355" d="M183.1-163.2c-1.7-4,0.4-10.1,0.8-11.2c1-0.2,2.1-0.5,3.1-0.8c-1.8,4.8-1.2,9.5-0.7,11.8
							c-0.9,0.1-1.9,0.2-2.8,0.3C183.5-163.1,183.1-163.2,183.1-163.2z"/>
					</g>
				</g>
			</g>
		</g>
	</g>
	<g id="g9357" transform="matrix(0 1.25 1.25 0 95.396 -230.6)">
		<g id="g9365">
			<g>
				<defs>
					<rect id="SVGID_53_" x="900.2" y="373.6" width="2.5" height="15.1"/>
				</defs>
				<clipPath id="SVGID_54_">
					<use xlink:href="#SVGID_53_"  style="overflow:visible;"/>
				</clipPath>
				<g id="g9367" class="st37">
					<g id="g9369" transform="translate(712.27 543.61)">
						<path id="path9371" class="st11" d="M183.1-163.2c-0.2-0.1,3.8,2.4,10.5,1.5c0,0,0.6-0.8,1.6-1.8
							C195.2-163.5,186.5-161.8,183.1-163.2"/>
					</g>
				</g>
			</g>
		</g>
	</g>
	<g id="g9373" transform="matrix(0 1.25 1.25 0 715.61 672.98)">
		<path id="path9375" class="st0" d="M183.1-163.2c-0.4-1.3,1.9-4.1,2.9-5.5c1.3-2,2.1-3.8,3.3-5.8c3.7-5.9,5.1-12.8,8.2-19
			c2.7-5.4,5.8-12.6,3.2-18.7c-1.3-3-4.1-4.6-3-8.3c1.8,1.2,3.2,2.9,5.3,3.7c1.9,0.7,1.5-4.8,1.4-5.4c-0.3-1.3-1.9-5,0-5.7
			c1.6-0.6,4.7,3.3,5.6,4.4c1.9,2.3,3.5,5.5,2.8,8.6c-0.6,3.1-3.1,5.4-3.8,8.6c-0.8,3.8-0.9,7.7-1.2,11.5
			c-0.9,9.6-2.3,18.1-7.1,26.6c-1.8,3.1-2.8,6.4-4.4,9.5c-1.7,3.2-4.1,2.9-7.4,1C186.3-159.3,183.5-160.7,183.1-163.2"/>
	</g>
	<g id="g9377" transform="matrix(0 1.25 1.25 0 714.42 668.2)">
		<path id="path9379" class="st8" d="M183.1-163.2c0,0,1.7-0.2,8.5-10.4c6.8-10.2,4.3,6.3,11.7,10s0.9,1.7-8.5,9.7
			C194.8-153.8,185.7-158.3,183.1-163.2"/>
	</g>
	<g id="g9381" transform="matrix(0 1.25 1.25 0 95.396 -230.6)">
		<g id="g9389">
			<g>
				<defs>
					<rect id="SVGID_55_" x="910.8" y="318.6" width="13.5" height="14.4"/>
				</defs>
				<clipPath id="SVGID_56_">
					<use xlink:href="#SVGID_55_"  style="overflow:visible;"/>
				</clipPath>
				<g id="g9391" class="st38">
					<g id="g9393" transform="translate(729.93 483.57)">
						<path id="path9395" d="M183.1-163.2c1.8,4.1,7.5,7,10.3,8.4c-0.4,0.8-0.8,1.6-1.2,2.4l0,0c-5.1-1.3-10.3-8.6-10.4-8.6
							c0.2-0.4,0.4-0.7,0.7-1.1C182.7-162.5,182.9-162.8,183.1-163.2"/>
					</g>
				</g>
			</g>
		</g>
	</g>
</g>
</svg>
